<?xml version="1.0" encoding="UTF-8" standalone="no"?>
<!-- Created with Inkscape (http://www.inkscape.org/) -->

<svg
   width="64.428207mm"
   height="64.428215mm"
   viewBox="0 0 64.428207 64.428215"
   version="1.1"
   id="svg1"
   xml:space="preserve"
   xmlns="http://www.w3.org/2000/svg"
   xmlns:svg="http://www.w3.org/2000/svg"><defs
     id="defs1" /><g
     id="layer1"
     transform="translate(-264.53875,-10.840148)"><g
       id="g19"><rect
         style="fill:#0a2540;fill-opacity:1;stroke:#ed1f44;stroke-width:0"
         id="rect16707"
         width="64.428215"
         height="64.428215"
         x="264.53876"
         y="10.840148" /><path
         fill="#1769ff"
         d="m 286.47615,27.188715 c 1.51105,0 2.88866,0.133195 4.13306,0.400087 1.24442,0.266641 2.31099,0.704064 3.1997,1.310755 0.88872,0.607447 1.57765,1.414939 2.06653,2.422474 0.48888,1.007535 0.73333,2.251692 0.73333,3.732976 0,1.600099 -0.363,2.933305 -1.08876,3.999617 -0.72626,1.066565 -1.79989,1.940401 -3.2219,2.622014 1.95529,0.563048 3.41438,1.548637 4.37751,2.955252 0.96213,1.407624 1.4447,3.104088 1.4447,5.088633 0,1.59985 -0.31104,2.985272 -0.93362,4.155766 -0.62182,1.170749 -1.45934,2.126073 -2.51051,2.865699 -1.05193,0.741149 -2.25195,1.288809 -3.59978,1.644999 a 16.242406,16.242406 0 0 1 -4.15526,0.532782 H 271.544 V 27.188715 Z m -0.88872,12.84393 c 1.24442,0 2.26633,-0.296156 3.0665,-0.888973 0.79993,-0.592311 1.19977,-1.555448 1.19977,-2.888653 0,-0.74039 -0.1332,-1.34809 -0.39984,-1.822091 -0.26664,-0.473748 -0.62208,-0.844826 -1.06657,-1.110962 -0.44449,-0.266894 -0.95557,-0.451297 -1.53325,-0.555733 a 10.200475,10.200475 0 0 0 -1.79989,-0.155394 h -6.53283 v 7.422058 h 7.06611 z m 0.39984,13.465256 c 0.6811,0 1.33321,-0.06687 1.95529,-0.20005 0.62207,-0.133445 1.16999,-0.355683 1.64449,-0.666979 0.4735,-0.310534 0.85139,-0.733075 1.13317,-1.266609 0.28126,-0.533027 0.42203,-1.214385 0.42203,-2.044327 0,-1.628863 -0.45963,-2.791792 -1.3776,-3.48829 -0.91875,-0.696242 -2.13339,-1.044616 -3.64419,-1.044616 h -7.59914 v 8.710363 z m 20.91355,-0.666481 c 0.948,0.919244 2.31097,1.377602 4.08866,1.377602 1.27342,0 2.37,-0.317846 3.28824,-0.955314 0.91848,-0.636209 1.48154,-1.310753 1.6889,-2.022138 h 5.55506 c -0.88847,2.755214 -2.25194,4.725888 -4.08841,5.910508 -1.83748,1.185381 -4.05966,1.777691 -6.66654,1.777691 -1.80721,0 -3.43707,-0.288843 -4.88858,-0.866774 -1.45202,-0.577423 -2.68181,-1.399801 -3.68833,-2.466371 -1.00754,-1.066306 -1.78526,-2.339476 -2.33343,-3.821511 -0.54842,-1.481038 -0.82187,-3.110906 -0.82187,-4.888598 0,-1.717902 0.28077,-3.31775 0.84432,-4.799285 0.5623,-1.481031 1.36197,-2.762523 2.40003,-3.844476 1.03629,-1.080943 2.27364,-1.932833 3.71078,-2.555164 1.43663,-0.62233 3.02916,-0.933117 4.77734,-0.933117 1.95553,0 3.65881,0.377636 5.11108,1.133161 1.45126,0.755273 2.64396,1.771133 3.57758,3.044048 0.93312,1.274176 1.60666,2.726198 2.02239,4.355055 0.41472,1.629866 0.56229,3.333143 0.44449,5.110834 h -16.57666 c 0.0885,2.04383 0.60618,3.525864 1.55495,4.443849 z m 7.13271,-12.0879 c -0.75528,-0.829187 -1.90383,-1.24441 -3.44389,-1.24441 -1.00753,0 -1.84428,0.170782 -2.51076,0.511084 -0.66673,0.34131 -1.20026,0.762588 -1.60035,1.266608 -0.39958,0.50402 -0.68161,1.037554 -0.84407,1.599847 -0.16322,0.563049 -0.25958,1.066816 -0.2891,1.51105 h 10.26582 c -0.29616,-1.600098 -0.82187,-2.814489 -1.57765,-3.644179 z M 304.2677,28.799913 h 12.82653 v 3.556393 H 304.2677 Z"
         id="path1-7"
         style="fill:#f5efe6;fill-opacity:1;stroke-width:0.252262" /></g></g></svg>
