<?xml version="1.0" encoding="UTF-8" standalone="no"?>
<!-- Created with Inkscape (http://www.inkscape.org/) -->

<svg
   width="67.089188mm"
   height="67.089188mm"
   viewBox="0 0 67.089188 67.089188"
   version="1.1"
   id="svg1"
   xml:space="preserve"
   xmlns="http://www.w3.org/2000/svg"
   xmlns:svg="http://www.w3.org/2000/svg"><defs
     id="defs1"><radialGradient
       id="0"
       cx="217.75999"
       cy="3290.99"
       r="4271.9199"
       gradientUnits="userSpaceOnUse"
       gradientTransform="matrix(0.01993913,0,0,0.01993913,342.09366,10.828144)"><stop
         offset=".09"
         stop-color="#fa8f21"
         id="stop1" /><stop
         offset=".78"
         stop-color="#d82d7e"
         id="stop2" /></radialGradient><radialGradient
       id="1"
       cx="2330.6101"
       cy="3182.95"
       r="3759.3301"
       gradientUnits="userSpaceOnUse"
       gradientTransform="matrix(0.01993913,0,0,0.01993913,342.09366,10.828144)"><stop
         offset="1"
         stop-color="#8c3aaa"
         stop-opacity="0"
         id="stop3"
         style="stop-color:#0a2540;stop-opacity:1;" /><stop
         offset="1"
         stop-color="#8c3aaa"
         id="stop4" /></radialGradient></defs><g
     id="layer1"
     transform="translate(-342.09365,-10.828144)"><path
       d="m 359.10573,77.680059 c -3.98982,-0.181446 -6.15721,-0.845419 -7.59881,-1.407703 -1.91017,-0.743729 -3.27201,-1.629026 -4.70563,-3.060656 -1.43362,-1.43163 -2.32092,-2.793472 -3.06066,-4.703641 -0.56228,-1.441599 -1.22625,-3.608982 -1.4077,-7.598802 -0.19939,-4.312834 -0.23927,-5.606884 -0.23927,-16.533527 0,-10.926643 0.0439,-12.218699 0.23728,-16.53552 0.18144,-3.98982 0.8494,-6.153216 1.4077,-7.598803 0.74373,-1.910168 1.63102,-3.272011 3.06065,-4.707628 1.43163,-1.43163 2.79348,-2.320915 4.70564,-3.060657 1.4416,-0.562283 3.60898,-1.226256 7.5988,-1.407702 4.31483,-0.197398 5.61087,-0.237276 16.53353,-0.237276 10.92664,0 12.2187,0.04387 16.53552,0.237276 3.98982,0.181446 6.15321,0.849407 7.5988,1.407702 1.91017,0.739742 3.27201,1.629027 4.70564,3.060657 1.43362,1.431629 2.31692,2.795466 3.06065,4.705634 0.56229,1.441599 1.22626,3.608983 1.40771,7.598803 0.19739,4.316821 0.23727,5.608877 0.23727,16.53552 0,10.922656 -0.0399,12.218699 -0.23727,16.535521 -0.18145,3.98982 -0.84941,6.157203 -1.40771,7.598802 -0.74373,1.910169 -1.62902,3.272011 -3.06065,4.703641 -1.43163,1.43163 -2.79547,2.316927 -4.70564,3.060656 -1.4416,0.562284 -3.60898,1.226257 -7.5988,1.407703 -4.31283,0.197397 -5.60888,0.237276 -16.53552,0.237276 -10.92266,0 -12.2187,-0.03788 -16.53153,-0.237276"
       fill="url(#0)"
       id="path4"
       style="fill:url(#0);stroke-width:0.0199391" /><g
       id="g18"><path
         d="m 359.10573,77.680059 c -3.98982,-0.181446 -6.15721,-0.845419 -7.59881,-1.407703 -1.91017,-0.743729 -3.27201,-1.629026 -4.70563,-3.060656 -1.43362,-1.43163 -2.32092,-2.793472 -3.06066,-4.703641 -0.56228,-1.441599 -1.22625,-3.608982 -1.4077,-7.598802 -0.19939,-4.312834 -0.23927,-5.606884 -0.23927,-16.533527 0,-10.926643 0.0439,-12.218699 0.23728,-16.53552 0.18144,-3.98982 0.8494,-6.153216 1.4077,-7.598803 0.74373,-1.910168 1.63102,-3.272011 3.06065,-4.707628 1.43163,-1.43163 2.79348,-2.320915 4.70564,-3.060657 1.4416,-0.562283 3.60898,-1.226256 7.5988,-1.407702 4.31483,-0.197398 5.61087,-0.237276 16.53353,-0.237276 10.92664,0 12.2187,0.04387 16.53552,0.237276 3.98982,0.181446 6.15321,0.849407 7.5988,1.407702 1.91017,0.739742 3.27201,1.629027 4.70564,3.060657 1.43362,1.431629 2.31692,2.795466 3.06065,4.705634 0.56229,1.441599 1.22626,3.608983 1.40771,7.598803 0.19739,4.316821 0.23727,5.608877 0.23727,16.53552 0,10.922656 -0.0399,12.218699 -0.23727,16.535521 -0.18145,3.98982 -0.84941,6.157203 -1.40771,7.598802 -0.74373,1.910169 -1.62902,3.272011 -3.06065,4.703641 -1.43163,1.43163 -2.79547,2.316927 -4.70564,3.060656 -1.4416,0.562284 -3.60898,1.226257 -7.5988,1.407703 -4.31283,0.197397 -5.60888,0.237276 -16.53552,0.237276 -10.92266,0 -12.2187,-0.03788 -16.53153,-0.237276"
         fill="url(#1)"
         id="path5"
         style="fill:url(#1);stroke-width:0.0199391" /><path
         d="m 367.4014,44.515703 c 0,-4.588193 3.71845,-8.308636 8.30664,-8.308636 4.5882,0 8.30864,3.720443 8.30864,8.308636 0,4.588193 -3.72044,8.308635 -8.30864,8.308635 -4.58819,0 -8.30664,-3.720442 -8.30664,-8.308635 m -4.49149,0 c 0,7.068422 5.72971,12.79813 12.79813,12.79813 7.06842,0 12.79813,-5.729708 12.79813,-12.79813 0,-7.068422 -5.72971,-12.79813 -12.79813,-12.79813 -7.06842,0 -12.79793,5.72931 -12.79793,12.79813 m 23.11205,-13.305581 a 2.9908695,2.9908695 0 1 0 2.99206,-2.989673 h -0.001 a 2.9922652,2.9922652 0 0 0 -2.99086,2.989673 m -20.38338,33.593247 c -2.42998,-0.110662 -3.75075,-0.515427 -4.62847,-0.857383 -1.16365,-0.453017 -1.99391,-0.99257 -2.86685,-1.864308 -0.87293,-0.871739 -1.41328,-1.701207 -1.86431,-2.864855 -0.34215,-0.877321 -0.74692,-2.198488 -0.85738,-4.62847 -0.12083,-2.62718 -0.14496,-3.41637 -0.14496,-10.072251 0,-6.655881 0.0261,-7.442879 0.14496,-10.072252 0.11066,-2.429982 0.51842,-3.748556 0.85738,-4.62847 0.45302,-1.163648 0.99257,-1.993913 1.86431,-2.866848 0.87174,-0.872935 1.70121,-1.413286 2.86685,-1.864309 0.87732,-0.342155 2.19849,-0.74692 4.62847,-0.857382 2.62718,-0.120832 3.41637,-0.144958 10.06926,-0.144958 6.65289,0 7.44288,0.02572 10.07225,0.145356 2.42999,0.110663 3.74856,0.518418 4.62847,0.857383 1.16365,0.451023 1.99392,0.99257 2.86685,1.864309 0.87294,0.871738 1.41129,1.7032 1.86431,2.866848 0.34216,0.877321 0.74692,2.198488 0.85738,4.62847 0.12083,2.629373 0.14496,3.41637 0.14496,10.072251 0,6.655881 -0.0241,7.442879 -0.14496,10.072252 -0.11066,2.429982 -0.51742,3.75075 -0.85738,4.62847 -0.45302,1.163648 -0.99257,1.993913 -1.86431,2.864854 -0.87174,0.870942 -1.7032,1.411292 -2.86685,1.864309 -0.87732,0.342156 -2.19848,0.74692 -4.62847,0.857383 -2.62718,0.120831 -3.41637,0.144957 -10.07225,0.144957 -6.65588,0 -7.44288,-0.02413 -10.06926,-0.144957 M 365.43241,19.74273 c -2.6533,0.120831 -4.46636,0.541546 -6.04973,1.157666 -1.6388,0.636257 -3.02796,1.489851 -4.41512,2.874823 -1.38717,1.384972 -2.23857,2.774331 -2.87483,4.415122 -0.61611,1.584363 -1.03683,3.396431 -1.15766,6.049731 -0.12283,2.657488 -0.15094,3.507094 -0.15094,10.275631 0,6.768537 0.0281,7.618143 0.15094,10.275631 0.12083,2.653499 0.54155,4.465368 1.15766,6.049731 0.63626,1.638797 1.48786,3.030748 2.87483,4.415122 1.38696,1.384373 2.77433,2.236771 4.41512,2.874823 1.58636,0.616119 3.39643,1.036835 6.04973,1.157666 2.65888,0.120831 3.5071,0.150939 10.27563,0.150939 6.76854,0 7.61815,-0.02811 10.27563,-0.150939 2.6535,-0.120831 4.46537,-0.541547 6.04973,-1.157666 1.6388,-0.638052 3.02796,-1.489851 4.41513,-2.874823 1.38716,-1.384972 2.23677,-2.776325 2.87482,-4.415122 0.61612,-1.584363 1.03883,-3.396431 1.15767,-6.049731 0.12083,-2.659482 0.14894,-3.507094 0.14894,-10.275631 0,-6.768537 -0.0281,-7.618143 -0.14894,-10.275631 -0.12084,-2.653499 -0.54155,-4.466365 -1.15767,-6.049731 -0.63805,-1.638797 -1.48985,-3.027956 -2.87482,-4.415122 -1.38498,-1.387165 -2.77633,-2.238566 -4.41313,-2.874823 -1.58636,-0.61612 -3.39843,-1.038829 -6.04973,-1.157666 -2.65789,-0.12143 -3.5071,-0.15094 -10.27464,-0.15094 -6.76754,0 -7.61874,0.02811 -10.27762,0.15094"
         fill="#ffffff"
         id="path6"
         style="fill:#f5efe6;fill-opacity:1;stroke-width:0.0199391" /></g></g></svg>
