<?xml version="1.0" encoding="UTF-8" standalone="no"?>
<!-- Created with Inkscape (http://www.inkscape.org/) -->

<svg
   width="63.158611mm"
   height="63.158604mm"
   viewBox="0 0 63.158611 63.158604"
   version="1.1"
   id="svg1"
   xml:space="preserve"
   xmlns="http://www.w3.org/2000/svg"
   xmlns:svg="http://www.w3.org/2000/svg"><defs
     id="defs1" /><g
     id="layer1"
     transform="translate(-425.21956,-92.345422)"><g
       fill="none"
       id="g2"
       transform="matrix(0.24671329,0,0,0.24671329,425.21955,92.345418)"><path
         d="M 0,18.338 C 0,8.216 8.474,0 18.92,0 H 237.08 C 247.53,0 256,8.216 256,18.338 V 237.665 C 256,247.79 247.53,256 237.08,256 H 18.92 C 8.475,256 0,247.791 0,237.668 V 18.335 Z"
         fill="#006699"
         id="path1-2" /><path
         d="M 77.796,214.238 V 98.986 H 39.488 V 214.238 H 77.8 Z M 58.65,83.253 c 13.356,0 21.671,-8.85 21.671,-19.91 -0.25,-11.312 -8.315,-19.915 -21.417,-19.915 -13.111,0 -21.674,8.603 -21.674,19.914 0,11.06 8.312,19.91 21.169,19.91 h 0.248 z M 99,214.238 h 38.305 v -64.355 c 0,-3.44 0.25,-6.889 1.262,-9.346 2.768,-6.885 9.071,-14.012 19.656,-14.012 13.858,0 19.405,10.568 19.405,26.063 v 61.65 h 38.304 v -66.082 c 0,-35.399 -18.896,-51.872 -44.099,-51.872 -20.663,0 -29.738,11.549 -34.78,19.415 h 0.255 V 98.99 H 99.002 c 0.5,10.812 -0.003,115.252 -0.003,115.252 z"
         fill="#ffffff"
         id="path2" /></g></g></svg>
