<?xml version="1.0" encoding="UTF-8" standalone="no"?>
<!-- Created with Inkscape (http://www.inkscape.org/) -->

<svg
   width="63.158581mm"
   height="63.158604mm"
   viewBox="0 0 63.158581 63.158604"
   version="1.1"
   id="svg1"
   xml:space="preserve"
   xmlns="http://www.w3.org/2000/svg"
   xmlns:svg="http://www.w3.org/2000/svg"><defs
     id="defs1" /><g
     id="layer1"
     transform="translate(-425.21954,-92.345422)"><g
       id="g16"><path
         d="m 425.21955,96.869646 c 0,-2.497232 2.09065,-4.524228 4.66782,-4.524228 h 53.82297 c 2.57815,0 4.66781,2.026996 4.66781,4.524228 v 54.110884 c 0,2.49797 -2.08966,4.52349 -4.66781,4.52349 h -53.82297 c -2.57692,0 -4.66782,-2.02527 -4.66782,-4.52275 V 96.868906 Z"
         fill="#006699"
         id="path1-2"
         style="fill:#0a2540;fill-opacity:1;stroke-width:0.246713" /><path
         d="m 444.41286,145.20078 v -28.4342 h -9.4511 v 28.4342 h 9.45208 z m -4.72358,-32.31574 c 3.29511,0 5.34653,-2.18341 5.34653,-4.91206 -0.0617,-2.79082 -2.05142,-4.9133 -5.28386,-4.9133 -3.23466,0 -5.34726,2.12248 -5.34726,4.91305 0,2.72865 2.05068,4.91206 5.22267,4.91206 h 0.0612 z m 9.95489,32.31574 h 9.45035 v -15.87723 c 0,-0.8487 0.0617,-1.69961 0.31135,-2.30579 0.6829,-1.69862 2.23794,-3.45694 4.8494,-3.45694 3.41895,0 4.78747,2.60726 4.78747,6.43009 v 15.20987 h 9.4501 v -16.30331 c 0,-8.7334 -4.66189,-12.79751 -10.87981,-12.79751 -5.09783,0 -7.33676,2.84929 -8.58068,4.78994 h 0.0629 v -4.12233 h -9.4506 c 0.12336,2.66746 -7.4e-4,28.4342 -7.4e-4,28.4342 z"
         fill="#ffffff"
         id="path2"
         style="fill:#f5efe6;fill-opacity:1;stroke-width:0.246713" /></g></g></svg>
