<?xml version="1.0" encoding="UTF-8" standalone="no"?>
<!-- Created with Inkscape (http://www.inkscape.org/) -->

<svg
   width="66.080109mm"
   height="66.080086mm"
   viewBox="0 0 66.080109 66.080086"
   version="1.1"
   id="svg1"
   xml:space="preserve"
   xmlns="http://www.w3.org/2000/svg"
   xmlns:svg="http://www.w3.org/2000/svg"><defs
     id="defs1" /><g
     id="layer1"
     transform="translate(-427.00478,-12.005989)"><g
       id="g15"><rect
         width="66.080086"
         height="66.080086"
         rx="1.93594%"
         fill="#25d366"
         id="rect1-7"
         x="427.00479"
         y="12.005989"
         style="fill:#0a2540;fill-opacity:1;stroke-width:0.129063" /><path
         fill="#25d366"
         stroke="#ffffff"
         stroke-width="3.35563"
         d="m 442.8795,62.727618 1.80688,-8.389073 a 17.810648,17.810648 0 1 1 6.45313,6.065945 z"
         id="path1-6"
         style="stroke:#f5efe6;stroke-opacity:1" /><path
         fill="#ffffff"
         d="m 466.75609,47.240098 c -0.38719,-0.258125 -0.77437,-0.387188 -1.16156,0.129063 l -1.54875,2.065002 c -0.38719,0.258126 -0.64532,0.387188 -1.16157,0.129063 -1.93594,-1.032501 -4.64625,-2.194065 -6.96938,-6.065946 -0.12906,-0.51625 0.12906,-0.774376 0.38719,-1.032501 l 1.16156,-1.806877 c 0.25813,-0.258126 0.12906,-0.516251 0,-0.774376 l -1.54875,-3.742818 c -0.38719,-1.032501 -0.77438,-0.903438 -1.16157,-0.903438 h -1.0325 c -0.25812,0 -0.77437,0.129062 -1.29062,0.645313 -2.83938,2.839379 -1.67782,6.840321 0.38718,9.421575 0.38719,0.516251 2.96845,5.162507 8.51814,7.614697 4.13001,1.806878 5.03344,1.548752 6.19501,1.290627 1.41969,-0.129063 2.83938,-1.290627 3.48469,-2.452191 0.12906,-0.387188 0.77438,-2.065002 0.25813,-2.323128"
         id="path2-1"
         style="fill:#f5efe6;fill-opacity:1;stroke-width:0.129063" /></g></g></svg>
