<?xml version="1.0" encoding="UTF-8" standalone="no"?>
<!-- Created with Inkscape (http://www.inkscape.org/) -->

<svg
   width="66.080109mm"
   height="66.080086mm"
   viewBox="0 0 66.080109 66.080086"
   version="1.1"
   id="svg1"
   xml:space="preserve"
   xmlns="http://www.w3.org/2000/svg"
   xmlns:svg="http://www.w3.org/2000/svg"><defs
     id="defs1" /><g
     id="layer1"
     transform="translate(-427.00478,-12.005988)"><g
       id="g16707"
       transform="matrix(0.12906267,0,0,0.12906267,427.00479,12.005989)"><rect
         width="512"
         height="512"
         rx="15.000001%"
         fill="#25d366"
         id="rect1-7"
         x="0"
         y="0" /><path
         fill="#25d366"
         stroke="#ffffff"
         stroke-width="26"
         d="m 123,393 14,-65 a 138,138 0 1 1 50,47 z"
         id="path1-6" /><path
         fill="#ffffff"
         d="m 308,273 c -3,-2 -6,-3 -9,1 l -12,16 c -3,2 -5,3 -9,1 -15,-8 -36,-17 -54,-47 -1,-4 1,-6 3,-8 l 9,-14 c 2,-2 1,-4 0,-6 l -12,-29 c -3,-8 -6,-7 -9,-7 h -8 c -2,0 -6,1 -10,5 -22,22 -13,53 3,73 3,4 23,40 66,59 32,14 39,12 48,10 11,-1 22,-10 27,-19 1,-3 6,-16 2,-18"
         id="path2-1" /></g></g></svg>
